<svg width="13" height="13" viewBox="0 0 13 13" fill="none" xmlns="http://www.w3.org/2000/svg">
<path d="M1.38596 8.9076L1.33093 9.10866L0.710947 11.3738L3.04574 10.761L3.23768 10.7107L3.41193 10.8056C4.21317 11.2423 5.11502 11.4727 6.033 11.4733H6.03533C9.05705 11.4733 11.5187 9.01266 11.52 5.98867L1.38596 8.9076ZM1.38596 8.9076L1.28187 8.72699M1.38596 8.9076L1.28187 8.72699M1.28187 8.72699C0.802482 7.89524 0.550035 6.95213 0.55 5.98487L1.28187 8.72699ZM7.69462 7.27528C7.55323 7.4562 7.36869 7.67142 7.3086 7.74023L6.932 7.41133L7.3086 7.74023C7.21678 7.84536 7.06923 7.96598 6.85279 7.99194C6.65726 8.01539 6.49161 7.94949 6.38439 7.89588C6.37066 7.88901 6.34809 7.87939 6.31774 7.86644C6.12568 7.7845 5.62193 7.5696 5.07261 7.07989L5.07249 7.07978C4.56861 6.63029 4.23701 6.08674 4.14123 5.92224C4.0382 5.74527 3.9963 5.53095 4.07687 5.31499C4.13558 5.15762 4.24778 5.04867 4.28161 5.01582C4.2839 5.0136 4.28582 5.01173 4.28735 5.01021L4.28754 5.01003C4.31553 4.98231 4.34 4.95214 4.37584 4.90796C4.40298 4.87449 4.43665 4.83298 4.4833 4.77841C4.49772 4.76155 4.50398 4.75167 4.51079 4.73948C4.51216 4.73704 4.5136 4.73439 4.51519 4.73142C4.45135 4.58283 4.32723 4.28092 4.22126 4.02315C4.1741 3.90843 4.13053 3.80246 4.09747 3.72263C4.04281 3.72127 3.9832 3.7207 3.9216 3.72067C3.92039 3.72096 3.91857 3.72149 3.91632 3.72239C3.9133 3.72359 3.90933 3.72553 3.90458 3.72875C3.89994 3.7319 3.89335 3.7371 3.88536 3.74579L7.69462 7.27528ZM7.69462 7.27528C7.70521 7.28015 7.71627 7.28527 7.72777 7.29062C7.81512 7.33122 7.92205 7.38224 8.03089 7.43478C8.24873 7.53994 8.46748 7.64793 8.5396 7.68415C8.5465 7.68761 8.55334 7.69103 8.5601 7.69437C8.54831 7.76869 8.52712 7.85872 8.49242 7.95595C8.49254 7.95561 8.49259 7.95547 8.49256 7.95551C8.49217 7.95597 8.48068 7.98117 8.43621 8.02657C8.39066 8.07308 8.32687 8.12404 8.24994 8.17332C8.08402 8.27962 7.9303 8.3327 7.88056 8.34009C7.66272 8.37213 7.42146 8.38091 7.16403 8.299C6.9538 8.23173 6.69292 8.14548 6.35762 8.001L7.69462 7.27528ZM9.91491 2.10868C8.87874 1.07129 7.50335 0.500665 6.03533 0.5L9.91491 2.10868ZM9.91491 2.10868C10.9511 3.14609 11.5199 4.52221 11.52 5.98846L9.91491 2.10868ZM6.03296 11.4633H6.03333H6.03533C9.05303 11.4633 11.5079 9.00731 11.5093 5.98892C11.5101 4.52684 10.94 3.15046 9.90793 2.11616L9.90768 2.11591C8.87467 1.08216 7.49889 0.5114 6.03758 0.510666H6.03733C3.01723 0.510666 0.562134 2.96576 0.560667 5.98442V5.98467C0.560667 7.01818 0.849577 8.02587 1.39806 8.89815L1.39913 8.89985L0.955049 10.5234L0.726566 11.3588L1.56423 11.139L3.2442 10.6981L3.24548 10.6989L3.24591 10.6992C4.08774 11.1994 5.05128 11.4626 6.03296 11.4633ZM4.86333 5.10333C4.92668 5.02924 4.95404 4.97339 4.9914 4.89709C4.99808 4.88346 5.00508 4.86916 5.01267 4.854C5.06267 4.754 5.038 4.66667 5 4.592C4.97519 4.54193 4.83463 4.2 4.70655 3.88841L4.86333 5.10333ZM0.55 5.98467C0.551331 2.96077 3.0128 0.500113 6.03513 0.5L0.55 5.98467Z" fill="#D8D7CE" stroke="#D8D7CE"/>
</svg>
